<svg xmlns="http://www.w3.org/2000/svg" viewBox="0 0 64 64"><path fill="#ed995a" d="M40.4,51.45,38,52.58l-.11.02A6.888,6.888,0,0,0,35,47.59V44l5.4,2.55A2.677,2.677,0,0,1,40.4,51.45Z"/><path fill="#e2884b" d="M37.762,52.866a1,1,0,0,1-.973-.777,5.692,5.692,0,0,0-2.311-3.649A1,1,0,0,1,34,47.586V43.935a1,1,0,0,1,2,0v3.126a7.967,7.967,0,0,1,2.738,4.582,1,1,0,0,1-.752,1.2A1.012,1.012,0,0,1,37.762,52.866Z"/><path fill="#02966c" d="M35,43.16V38a3,3,0,0,0-6,0v6.41L26.18,45,20,46.29l-1,.21-2.46.51-1.41-6.75L7.97,5.89,19,3.59l1-.21L21.82,3H31.88l8.15,39.11Z"/><polygon fill="#02966c" points="55.97 5.84 54.76 11.73 47.54 46.98 38.72 45.17 37.89 45 32.85 43.97 24.03 42.16 32.05 3 42.12 3 44 3.39 45 3.59 50.12 4.64 55.97 5.84"/><rect width="24" height="42" x="20" y="3" fill="#02966c"/><path fill="#38ce98" d="M55.97,5.84l-1.21,5.89a6,6,0,0,1-4.64-7.09Z"/><path fill="#f9e280" d="M44,19.528a6,6,0,0,1,0,8.944Z"/><path fill="#11aa7b" d="M20,3H32a0,0,0,0,1,0,0V28.242A7.758,7.758,0,0,1,24.242,36H20a0,0,0,0,1,0,0V3A0,0,0,0,1,20,3Z"/><path fill="#02966c" d="M35,38v5.16l-6,1.25V38a3,3,0,0,1,6,0Z"/><path fill="#38ce98" d="M9.191 11.765a6 6 0 0 0 4.649-7.1L7.967 5.891zM20 19.53v8.93a5.864 5.864 0 0 1-1.87-3.24A5.972 5.972 0 0 1 20 19.53z"/><path fill="#39d8a3" d="M45.88,25.2A5.9,5.9,0,0,1,44,28.46V19.53A6,6,0,0,1,45.88,25.2Z"/><polygon fill="#038e63" points="20 3.39 20 46.29 19 46.5 19 3.59 20 3.39"/><path fill="#38ce98" d="M22.412,45.783a6,6,0,0,0-7.1-4.65l1.224,5.874Z"/><path fill="#39d8a3" d="M20 9a6 6 0 0 0 6-6H20zM44 9a6 6 0 0 1-6-6h6z"/><circle cx="32" cy="24" r="6" fill="#39d8a3"/><rect width="2" height="2" x="31" y="12" fill="#39d8a3"/><path fill="#39d8a3" d="M26,45a6,6,0,0,0-6-6v6Z"/><polygon fill="#038e63" points="45 3.59 45 45 44 45 44 3.39 45 3.59"/><path fill="#38ce98" d="M41.663,45.777A6,6,0,0,1,48.745,41.1l-1.2,5.877Z"/><path fill="#39d8a3" d="M38,45a6,6,0,0,1,6-6v6Z"/><path fill="#f7aa6b" d="M38,54c0,3.87-2.24,7-5,7H20L14,48l1-8h.03l.1.26,1.41,6.75L26.18,45H29V38a3,3,0,0,1,6,0v9.59a3.617,3.617,0,0,1,.32.22c.11.08.21.16.32.25a3.833,3.833,0,0,1,.29.28,1.848,1.848,0,0,1,.14.14c.06.07.13.14.19.22a6.318,6.318,0,0,1,1,1.65,3.656,3.656,0,0,1,.18.46,1.336,1.336,0,0,1,.07.18.7.7,0,0,1,.06.19,5.9,5.9,0,0,1,.17.6c.06.27.11.54.15.82a4.019,4.019,0,0,1,.06.5,1.526,1.526,0,0,1,.03.3C37.99,53.6,38,53.8,38,54Z"/><path fill="#f9b378" d="M32,35V46.53A15.484,15.484,0,0,1,22,61H20L14,48l1-8h.03l.1.26,1.41,6.75L26.18,45H29V38a3,3,0,0,1,3-3Z"/><path d="M39,24a7,7,0,1,0-7,7A7.008,7.008,0,0,0,39,24Zm-7,5a5,5,0,1,1,5-5A5.006,5.006,0,0,1,32,29Z"/><rect width="2" height="2" x="31" y="12"/><path d="M9.524,18.2l1.959-.4-1.106-5.367a7.006,7.006,0,0,0,4.6-6.994L19,4.609V19.115a7.019,7.019,0,0,0-1.863,6.3A6.936,6.936,0,0,0,19,28.877V40.471a7.014,7.014,0,0,0-2.937-.459L11.9,19.83l-1.959.4L14,39.923l-.994,7.953a1,1,0,0,0,.084.543l6,13a1,1,0,1,0,1.816-.838L15.028,47.84l.229-1.83.244,1.182a1,1,0,0,0,.979.8,1.022,1.022,0,0,0,.256-.033L24.13,46H28v3.813a1,1,0,0,0,2,0V38a2,2,0,0,1,4,0v9.586a1,1,0,0,0,.478.854C36.01,49.377,37,51.56,37,54c0,3.252-1.832,6-4,6a1,1,0,0,0,0,2c3.309,0,6-3.589,6-8,0-.258-.02-.511-.038-.765l1.861-.879A3.706,3.706,0,0,0,43,49a3.617,3.617,0,0,0-.639-2.051l4.95,1.021a1.064,1.064,0,0,0,.2.02,1,1,0,0,0,.98-.8l2.889-14.017-1.959-.4-1.492,7.24A7.016,7.016,0,0,0,45,40.468v-11.6a6.928,6.928,0,0,0,1.856-3.455A7.021,7.021,0,0,0,45,19.122V4.61l4.013.827a7,7,0,0,0,4.6,6.994L49.831,30.792l1.959.4L56.972,6.057A1,1,0,0,0,56.2,4.876L44.875,2.542A.99.99,0,0,0,44,2H20a.99.99,0,0,0-.874.54L7.8,4.876a1,1,0,0,0-.777,1.181ZM21,44V40.1A5.016,5.016,0,0,1,24.9,44Zm-4.529-2.006A5,5,0,0,1,19,42.7V45a.967.967,0,0,0,.055.274l-1.809.479ZM32,34a4,4,0,0,0-4,4v6H26.92A7,7,0,0,0,21,38.08V9.92A7,7,0,0,0,26.92,4H37.08A7,7,0,0,0,43,9.92V38.08a7.006,7.006,0,0,0-5.9,5.805L36,43.366V38A4,4,0,0,0,32,34Zm7.1,10A5.016,5.016,0,0,1,43,40.1V44Zm.868,6.547-1.362.643A7.829,7.829,0,0,0,36,47.062V46h.893l3.076,1.453a1.676,1.676,0,0,1,0,3.094Zm7.553-8.553-.786,3.815-1.842-.38A.971.971,0,0,0,45,45V42.7A4.994,4.994,0,0,1,47.522,41.994Zm6.5-31.543a5.014,5.014,0,0,1-3.031-4.605l3.818.787ZM43,7.9A5.016,5.016,0,0,1,39.1,4H43ZM24.9,4A5.016,5.016,0,0,1,21,7.9V4ZM13,5.846a5.016,5.016,0,0,1-3.032,4.606L9.181,6.633Z"/></svg>